<svg width="1541" height="442" viewBox="0 0 1541 442" fill="none" xmlns="http://www.w3.org/2000/svg">
<path d="M93.2071 325.967C78.174 325.967 64.7029 323.527 52.7936 318.646C40.8843 313.765 31.3178 306.542 24.0941 296.975C17.0657 287.409 13.3562 275.89 12.9658 262.419H66.2647C67.0457 270.033 69.6813 275.89 74.1717 279.99C78.6621 283.894 84.5192 285.847 91.7428 285.847C99.1617 285.847 105.019 284.187 109.314 280.868C113.609 277.354 115.757 272.571 115.757 266.519C115.757 261.443 114 257.245 110.485 253.926C107.166 250.607 102.969 247.874 97.8927 245.726C93.0118 243.579 85.9834 241.138 76.8074 238.405C63.5315 234.305 52.696 230.205 44.3009 226.105C35.9058 222.005 28.6821 215.953 22.6299 207.948C16.5776 199.944 13.5515 189.499 13.5515 176.613C13.5515 157.48 20.4823 142.545 34.3439 131.807C48.2056 120.874 66.2647 115.407 88.5215 115.407C111.169 115.407 129.423 120.874 143.285 131.807C157.146 142.545 164.565 157.578 165.541 176.906H111.364C110.973 170.268 108.533 165.094 104.043 161.385C99.5522 157.48 93.7928 155.528 86.7643 155.528C80.7121 155.528 75.8312 157.187 72.1218 160.506C68.4123 163.63 66.5576 168.218 66.5576 174.27C66.5576 180.908 69.6813 186.082 75.9288 189.792C82.1763 193.501 91.9381 197.503 105.214 201.798C118.49 206.289 129.228 210.584 137.428 214.684C145.823 218.784 153.046 224.738 159.099 232.548C165.151 240.357 168.177 250.412 168.177 262.712C168.177 274.426 165.151 285.066 159.099 294.632C153.242 304.199 144.651 311.813 133.328 317.475C122.004 323.137 108.631 325.967 93.2071 325.967ZM189.038 241.919C189.038 225.129 192.162 210.389 198.409 197.699C204.852 185.008 213.54 175.247 224.473 168.413C235.406 161.58 247.608 158.164 261.08 158.164C272.598 158.164 282.653 160.506 291.243 165.192C300.029 169.878 306.764 176.027 311.45 183.642V160.506H361.528V323.917H311.45V300.782C306.569 308.396 299.736 314.546 290.95 319.232C282.36 323.917 272.306 326.26 260.787 326.26C247.511 326.26 235.406 322.844 224.473 316.01C213.54 308.982 204.852 299.123 198.409 286.432C192.162 273.547 189.038 258.709 189.038 241.919ZM311.45 242.212C311.45 229.717 307.936 219.858 300.907 212.634C294.074 205.41 285.679 201.798 275.722 201.798C265.765 201.798 257.273 205.41 250.244 212.634C243.411 219.662 239.994 229.424 239.994 241.919C239.994 254.414 243.411 264.371 250.244 271.79C257.273 279.014 265.765 282.625 275.722 282.625C285.679 282.625 294.074 279.014 300.907 271.79C307.936 264.566 311.45 254.707 311.45 242.212ZM606.267 158.749C626.571 158.749 642.678 164.899 654.587 177.199C666.692 189.499 672.744 206.582 672.744 228.448V323.917H622.959V235.183C622.959 224.641 620.128 216.539 614.467 210.877C609 205.02 601.386 202.091 591.624 202.091C581.862 202.091 574.151 205.02 568.489 210.877C563.022 216.539 560.289 224.641 560.289 235.183V323.917H510.504V235.183C510.504 224.641 507.673 216.539 502.012 210.877C496.545 205.02 488.931 202.091 479.169 202.091C469.408 202.091 461.696 205.02 456.034 210.877C450.567 216.539 447.834 224.641 447.834 235.183V323.917H397.757V160.506H447.834V181.006C452.91 174.173 459.548 168.804 467.748 164.899C475.948 160.799 485.222 158.749 495.569 158.749C507.869 158.749 518.802 161.385 528.368 166.656C538.13 171.928 545.744 179.444 551.211 189.206C556.873 180.225 564.584 172.904 574.346 167.242C584.108 161.58 594.748 158.749 606.267 158.749ZM697.81 241.919C697.81 225.129 700.934 210.389 707.182 197.699C713.624 185.008 722.312 175.247 733.245 168.413C744.178 161.58 756.381 158.164 769.852 158.164C781.371 158.164 791.425 160.506 800.015 165.192C808.801 169.878 815.537 176.027 820.222 183.642V160.506H870.3V323.917H820.222V300.782C815.341 308.396 808.508 314.546 799.723 319.232C791.132 323.917 781.078 326.26 769.559 326.26C756.283 326.26 744.178 322.844 733.245 316.01C722.312 308.982 713.624 299.123 707.182 286.432C700.934 273.547 697.81 258.709 697.81 241.919ZM820.222 242.212C820.222 229.717 816.708 219.858 809.68 212.634C802.846 205.41 794.451 201.798 784.494 201.798C774.537 201.798 766.045 205.41 759.016 212.634C752.183 219.662 748.766 229.424 748.766 241.919C748.766 254.414 752.183 264.371 759.016 271.79C766.045 279.014 774.537 282.625 784.494 282.625C794.451 282.625 802.846 279.014 809.68 271.79C816.708 264.566 820.222 254.707 820.222 242.212ZM956.606 187.742C962.463 178.761 969.785 171.732 978.57 166.656C987.356 161.385 997.117 158.749 1007.86 158.749V211.755H994.091C981.596 211.755 972.225 214.489 965.978 219.955C959.73 225.227 956.606 234.598 956.606 248.069V323.917H906.529V160.506H956.606V187.742ZM1122.87 281.454V323.917H1097.39C1079.23 323.917 1065.08 319.525 1054.93 310.739C1044.77 301.758 1039.7 287.213 1039.7 267.104V202.091H1019.78V160.506H1039.7V120.679H1089.78V160.506H1122.58V202.091H1089.78V267.69C1089.78 272.571 1090.95 276.085 1093.29 278.233C1095.63 280.38 1099.54 281.454 1105 281.454H1122.87ZM1251.21 158.749C1269.95 158.749 1284.99 164.997 1296.31 177.492C1307.63 189.792 1313.29 206.777 1313.29 228.448V323.917H1263.51V235.183C1263.51 224.25 1260.68 215.758 1255.02 209.705C1249.36 203.653 1241.74 200.627 1232.17 200.627C1222.61 200.627 1214.99 203.653 1209.33 209.705C1203.67 215.758 1200.84 224.25 1200.84 235.183V323.917H1150.76V107.207H1200.84V182.47C1205.92 175.247 1212.85 169.487 1221.63 165.192C1230.42 160.897 1240.28 158.749 1251.21 158.749Z" fill="#1359C8"/>
<path fill-rule="evenodd" clip-rule="evenodd" d="M1470.06 225.694L1439.24 273.454L1478.24 332.099H1540.99L1470.06 225.694ZM1389.24 332.099H1332.24L1403.19 219.525L1330.67 110.736H1393.42L1437.88 177.586L1476.98 110.736H1532.09L1389.24 332.099ZM1535.7 110.736L1537.45 111.858L1538.15 110.736H1535.7Z" fill="#FFAA01"/>
</svg>
